<?xml version="1.0" encoding="UTF-8" standalone="no"?>
<svg
   xmlns:dc="http://purl.org/dc/elements/1.1/"
   xmlns:cc="http://creativecommons.org/ns#"
   xmlns:rdf="http://www.w3.org/1999/02/22-rdf-syntax-ns#"
   xmlns:svg="http://www.w3.org/2000/svg"
   xmlns="http://www.w3.org/2000/svg"
   xmlns:sodipodi="http://sodipodi.sourceforge.net/DTD/sodipodi-0.dtd"
   xmlns:inkscape="http://www.inkscape.org/namespaces/inkscape"
   version="1.1"
   id="Layer_1"
   x="0px"
   y="0px"
   width="1200px"
   height="1200px"
   viewBox="0 0 1200 1200"
   style="enable-background:new 0 0 1200 1200;"
   xml:space="preserve"
   sodipodi:docname="headless_girl.svg"
   inkscape:version="1.0.1 (3bc2e813f5, 2020-09-07)"><metadata
   id="metadata1114"><rdf:RDF><cc:Work
       rdf:about=""><dc:format>image/svg+xml</dc:format><dc:type
         rdf:resource="http://purl.org/dc/dcmitype/StillImage" /><dc:title /></cc:Work></rdf:RDF></metadata><defs
   id="defs1112" /><sodipodi:namedview
   pagecolor="#ffffff"
   bordercolor="#666666"
   borderopacity="1"
   objecttolerance="10"
   gridtolerance="10"
   guidetolerance="10"
   inkscape:pageopacity="0"
   inkscape:pageshadow="2"
   inkscape:window-width="1600"
   inkscape:window-height="847"
   id="namedview1110"
   showgrid="false"
   inkscape:zoom="2.498444"
   inkscape:cx="674.94458"
   inkscape:cy="354.83788"
   inkscape:window-x="-8"
   inkscape:window-y="-8"
   inkscape:window-maximized="1"
   inkscape:current-layer="illustration_1_"
   inkscape:document-rotation="0"
   showguides="true"
   inkscape:guide-bbox="true" />
<g
   id="illustration_1_"
   transform="translate(0,-21.939587)"
   style="display:inline">
	<path
   style="fill:#60504b"
   d="m 642.50001,931.91744 v 46.8 c 0,48.79996 55.4,50.29996 55.4,4.5 v -51.8 z"
   id="path833" />
	<rect
   x="654.90002"
   y="953.21747"
   style="fill:#ffffff"
   width="30.6"
   height="4.4000001"
   id="rect835" />
	<rect
   x="654.90002"
   y="961.61749"
   style="fill:#ffffff"
   width="30.6"
   height="4.4000001"
   id="rect837" />
	<rect
   x="654.90002"
   y="970.11749"
   style="fill:#ffffff"
   width="30.6"
   height="4.4000001"
   id="rect839" />
	<path
   style="fill:#60504b"
   d="m 539.20001,931.91744 v 46.8 c 0,48.79996 55.4,50.29996 55.4,4.5 v -51.8 z"
   id="path841" />
	<path
   style="fill:#b1c9c3"
   d="m 513.50001,557.71744 c 0,66.4 0,148.9 0,228.2 0,55.8 0,110 0,155.8 56.6,0 51.8,0 92.7,0 0,-46.8 0,-101.4 0,-154.5 0,-75.9 0,-148.8 0,-191.6 5.9,0 20.5,0 25.9,0 0,41.3 0,115.8 0,191.6 0,54.9 0,110.4 0,154.5 45,0 35.6,0 92.7,0 0,-43 0,-97.5 0,-154.5 0,-79.5 0,-164 0,-229.5 z"
   id="path843" />
	<rect
   x="551.60004"
   y="953.21747"
   style="fill:#ffffff"
   width="30.6"
   height="4.4000001"
   id="rect845" />
	<rect
   x="551.60004"
   y="961.61749"
   style="fill:#ffffff"
   width="30.6"
   height="4.4000001"
   id="rect847" />
	<rect
   x="551.60004"
   y="970.11749"
   style="fill:#ffffff"
   width="30.6"
   height="4.4000001"
   id="rect849" />
	<g
   id="g871">
		
		
		
		<circle
   id="jawMid_2_"
   cx="625.5"
   cy="284.10001"
   r="0.80000001" />
		<circle
   id="rightJaw7_2_"
   cx="614.59998"
   cy="282.10001"
   r="0.80000001" />
		<circle
   id="leftJaw7_2_"
   cx="636.40002"
   cy="282.10001"
   r="0.80000001" />
		<circle
   id="rightJaw3_2_"
   cx="580.29999"
   cy="226.60001"
   r="0.80000001" />
		<circle
   id="rightJaw2_2_"
   cx="580.29999"
   cy="217.10001"
   r="0.80000001" />
		<circle
   id="leftJaw3_2_"
   cx="668.5"
   cy="227"
   r="0.80000001" />
		<circle
   id="leftJaw2_2_"
   cx="668.5"
   cy="217.39999"
   r="0.80000001" />
		<circle
   id="topMid_2_"
   cx="624.70001"
   cy="166"
   r="0.80000001" />
		<circle
   id="leftTop0_2_"
   cx="642.40002"
   cy="168.5"
   r="0.80000001" />
		<circle
   id="rightTop0_2_"
   cx="606.79999"
   cy="168.5"
   r="0.80000001" />
		
		
	</g>
	<path
   style="fill:#bf4c68;stroke-width:1.02673"
   d="m 496.10001,572.91744 c -1.3,-77.16587 0,0 9.49021,-222.0401 l 62.51545,-10.01843 49.60827,31.16071 c 7.20448,-1.50093 -6.9043,8.90554 0,0 41.22566,-53.23313 122.3772,-21.14228 122.3772,-21.14228 2.60887,222.0401 4.20887,145.50673 2.60887,222.0401 z"
   id="path873"
   sodipodi:nodetypes="cccccccc" />
	<line
   style="display:inline;fill:none"
   x1="736.00006"
   y1="573.51746"
   x2="503.20001"
   y2="573.51746"
   id="line875" />
	
	<path
   style="display:inline;fill:#f3af9d"
   d="M 616.2,277.5"
   id="path879" />
	
	
	<g
   id="g897"
   style="display:inline">
		
		<circle
   id="jawMid_1_"
   cx="625.5"
   cy="284.10001"
   r="0.80000001" />
		<circle
   id="rightJaw7_1_"
   cx="614.59998"
   cy="282.10001"
   r="0.80000001" />
		<circle
   id="leftJaw7_1_"
   cx="636.40002"
   cy="282.10001"
   r="0.80000001" />
		<circle
   id="rightJaw3_1_"
   cx="580.29999"
   cy="226.60001"
   r="0.80000001" />
		<circle
   id="rightJaw2_1_"
   cx="580.29999"
   cy="217.10001"
   r="0.80000001" />
		<circle
   id="leftJaw3_1_"
   cx="668.5"
   cy="227"
   r="0.80000001" />
		<circle
   id="leftJaw2_1_"
   cx="668.5"
   cy="217.39999"
   r="0.80000001" />
		<circle
   id="topMid_3_"
   cx="624.70001"
   cy="166"
   r="0.80000001" />
		<circle
   id="leftTop0_3_"
   cx="642.40002"
   cy="168.5"
   r="0.80000001" />
		<circle
   id="rightTop0_3_"
   cx="606.79999"
   cy="168.5"
   r="0.80000001" />
	</g>
	<g
   id="g906">
		
		<circle
   id="rightBrow1_1_"
   cx="592.5"
   cy="203.2"
   r="0.80000001" />
		<circle
   id="rightBrow4_1_"
   cx="615.79999"
   cy="206.2"
   r="0.80000001" />
		<circle
   id="rightBrow3_1_"
   cx="606"
   cy="202.2"
   r="0.80000001" />
		<circle
   id="rightBrow0_1_"
   cx="588.5"
   cy="206.89999"
   r="0.80000001" />
		<circle
   id="rightBrow2_1_"
   cx="598.70001"
   cy="202.2"
   r="0.80000001" />
	</g>
	<g
   id="g915">
		
		<circle
   id="leftBrow1_1_"
   cx="656.20001"
   cy="203.60001"
   r="0.80000001" />
		<circle
   id="leftBrow4_1_"
   cx="632.59998"
   cy="205.7"
   r="0.80000001" />
		<circle
   id="leftBrow3_1_"
   cx="642.59998"
   cy="202.5"
   r="0.80000001" />
		<circle
   id="leftBrow0_1_"
   cx="660.20001"
   cy="206.5"
   r="0.80000001" />
		<circle
   id="leftBrow2_1_"
   cx="649.90002"
   cy="202.10001"
   r="0.80000001" />
	</g>
	<g
   id="g927">
		
		
		<circle
   id="rightEye0_1_"
   cx="594.70001"
   cy="215.10001"
   r="0.80000001" />
		<circle
   id="rightEye1_1_"
   cx="599.90002"
   cy="211.39999"
   r="0.80000001" />
		<circle
   id="rightEye5_1_"
   cx="599.90002"
   cy="217.39999"
   r="0.80000001" />
		<circle
   id="rightEye2_1_"
   cx="606.20001"
   cy="211.39999"
   r="0.80000001" />
		<circle
   id="rightEye3_1_"
   cx="611.40002"
   cy="215.60001"
   r="0.80000001" />
		<circle
   id="rightEye4_1_"
   cx="606.20001"
   cy="216.60001"
   r="0.80000001" />
	</g>
	<g
   id="g939">
		
		
		<circle
   id="leftEye0_1_"
   cx="654.29999"
   cy="215.10001"
   r="0.80000001" />
		<circle
   id="leftEye1_1_"
   cx="649.09998"
   cy="211.39999"
   r="0.80000001" />
		<circle
   id="leftEye5_1_"
   cx="649.09998"
   cy="217.39999"
   r="0.80000001" />
		<circle
   id="leftEye2_1_"
   cx="642.79999"
   cy="211.39999"
   r="0.80000001" />
		<circle
   id="leftEye3_1_"
   cx="637.59998"
   cy="215.60001"
   r="0.80000001" />
		<circle
   id="leftEye4_1_"
   cx="642.79999"
   cy="216.60001"
   r="0.80000001" />
	</g>
	<g
   id="g951">
		<path
   id="rightMiddleLip_2_"
   d="m 610.8,254.6 c 0.4,0 0.8,0.4 0.8,0.8 0,0.4 -0.4,0.8 -0.8,0.8 -0.4,0 -0.8,-0.4 -0.8,-0.8 0,-0.4 0.4,-0.8 0.8,-0.8 z" />
		<circle
   id="upperLipBottomMid_1_"
   cx="624.5"
   cy="255.10001"
   r="0.80000001" />
		<circle
   id="rightUpperLipBottom1_1_"
   cx="620.59998"
   cy="254.60001"
   r="0.80000001" />
		<path
   id="leftMiddleLip_2_"
   d="m 638.2,254.6 c 0.4,0 0.8,0.4 0.8,0.8 0,0.4 -0.4,0.8 -0.8,0.8 -0.4,0 -0.8,-0.4 -0.8,-0.8 0,-0.4 0.4,-0.8 0.8,-0.8 z" />
		<circle
   id="leftUpperLipBottom1_1_"
   cx="628.40002"
   cy="254.60001"
   r="0.80000001" />
		
		<circle
   id="lowerLipTopMid_2_"
   cx="624.5"
   cy="258.10001"
   r="0.80000001" />
		<circle
   id="rightLowerLipTop0_2_"
   cx="620.59998"
   cy="257.39999"
   r="0.80000001" />
		<circle
   id="leftLowerLipTop0_2_"
   cx="628.40002"
   cy="257.39999"
   r="0.80000001" />
	</g>
	<g
   id="g965">
		
		<circle
   id="jawMid_3_"
   cx="625.5"
   cy="284.10001"
   r="0.80000001" />
		<circle
   id="rightJaw7_3_"
   cx="614.59998"
   cy="282.10001"
   r="0.80000001" />
		<circle
   id="leftJaw7_3_"
   cx="636.40002"
   cy="282.10001"
   r="0.80000001" />
		<circle
   id="rightJaw3_3_"
   cx="580.29999"
   cy="226.60001"
   r="0.80000001" />
		<circle
   id="rightJaw2_3_"
   cx="580.29999"
   cy="217.10001"
   r="0.80000001" />
		<circle
   id="leftJaw3_3_"
   cx="668.5"
   cy="227"
   r="0.80000001" />
		<circle
   id="leftJaw2_3_"
   cx="668.5"
   cy="217.39999"
   r="0.80000001" />
		<circle
   id="topMid_1_"
   cx="624.70001"
   cy="166"
   r="0.80000001" />
		<circle
   id="leftTop0_1_"
   cx="642.40002"
   cy="168.5"
   r="0.80000001" />
		<circle
   id="rightTop0_1_"
   cx="606.79999"
   cy="168.5"
   r="0.80000001" />
	</g>
	
	
	
	
	
	
	
<path
   style="display:inline;fill:#bf4c68;fill-opacity:1;stroke-width:1.02053"
   d="m 505.59022,350.87734 36.85618,43.8041 c 4.85022,25.06226 -88.78071,189.78109 -118.57712,242.69768 l -60.3129,-29.38324 c 25.05551,-52.27976 0,0 142.03384,-257.11854 z"
   id="path1022"
   sodipodi:nodetypes="ccccc" /><path
   style="display:inline;fill:#bf4c68;fill-opacity:1;stroke-width:1.02053"
   d="m 740.09114,350.87734 -36.85618,43.8041 c -4.85022,25.06226 88.78071,189.78109 118.57712,242.69768 l 60.3129,-29.38324 c -25.05551,-52.27976 0,0 -142.03384,-257.11854 z"
   id="path1229"
   sodipodi:nodetypes="ccccc" /></g>
<g
   id="skeleton_1_"
   sodipodi:insensitive="true">
	<polygon
   style="fill:none;stroke:#000000;stroke-miterlimit:10"
   points="685.5,564.5 731.7,349.5 518.8,349.5 569.1,565.3 "
   id="polygon993"
   transform="translate(0,19.077902)" />
	<polyline
   style="fill:none;stroke:#000000;stroke-miterlimit:10"
   points="517.8,349.5 415.1,349.5 251.8,355.8  "
   id="polyline995"
   transform="rotate(-60,534.82195,358.17293)" />
	<polyline
   style="fill:none;stroke:#000000;stroke-miterlimit:10"
   points="733.2,349.1 836.4,349.1 999.7,355.5  "
   id="polyline997"
   transform="rotate(60,715.58164,357.53991)" />
	<polyline
   style="fill:none;stroke:#000000;stroke-miterlimit:10"
   points="569.1,565.3 575.5,725.5 575.5,933.5  "
   id="polyline999"
   transform="translate(0,19.077902)" />
	<polyline
   style="fill:none;stroke:#000000;stroke-miterlimit:10"
   points="685.5,564.5 685.5,725.5 685.5,933.5  "
   id="polyline1001"
   transform="translate(0,19.077902)" />
	<polyline
   style="fill:none;stroke:#000000;stroke-miterlimit:10"
   points="624.5,170 604.7,172.5 592.2,182 583.6,196.1    581.1,205.4 580.3,217.1 580.3,226.6 581.1,248.3 587.9,268.3 599.5,280.8 609.5,287.5 624.5,290.7 639.3,287.9 649.3,281.2    660.9,268.6 667.7,248.6 668.5,227 668.5,217.4 667.7,205.7 665.2,196.5 657,182 644.4,172.5 624.5,170  "
   id="polyline1003" />
	<polyline
   style="fill:none;stroke:#000000;stroke-miterlimit:10"
   points="588.5,206.9 592.5,203.2 598.7,202.2 606,202.2    615.8,206.2  "
   id="polyline1005" />
	<polygon
   style="fill:none;stroke:#000000;stroke-miterlimit:10"
   points="599.9,217.4 594.7,215.1 599.9,211.4 606.2,211.4 611.4,215.6 606.2,216.6 "
   id="polygon1007" />
	<polyline
   style="fill:none;stroke:#000000;stroke-miterlimit:10"
   points="613,233.2 618.2,233.2 623.7,234 623.7,228.7    623.7,221.6 623.7,216.1 623.7,210.3  "
   id="polyline1009" />
	<polyline
   style="fill:none;stroke:#000000;stroke-miterlimit:10"
   points="660,206.5 656,203.6 649.7,202.1 642.4,202.5    632.4,205.7  "
   id="polyline1011" />
	<polygon
   style="fill:none;stroke:#000000;stroke-miterlimit:10"
   points="648.8,217.4 654.1,215.1 648.8,211.4 642.5,211.4 637.4,215.6 642.5,216.6 "
   id="polygon1013" />
	<polyline
   style="fill:none;stroke:#000000;stroke-miterlimit:10"
   points="634.1,233.2 629.1,233.2 623.7,234  "
   id="polyline1015" />
	<polygon
   style="fill:none;stroke:#000000;stroke-miterlimit:10"
   points="635.1,251.9 642,255.3 635.6,261.6 628.5,264.4 624.5,264.9 620.4,264.4 613.4,261.6 607,255.3 613.9,251.9 620.4,250.8 624.5,251.7 628.7,250.8 "
   id="polygon1017" />
	<polyline
   style="fill:none;stroke:#000000;stroke-miterlimit:10"
   points="607,255.3 610.6,255.6 620.6,254.8 624.5,255.3    628.5,254.8 638.4,255.6 642,255.3  "
   id="polyline1019" />
	<polyline
   style="fill:none;stroke:#000000;stroke-miterlimit:10"
   points="607,255.3 610.6,255.6 620.6,257.7 624.5,258.5    628.5,257.7 638.4,255.6 642,255.3  "
   id="polyline1021" />
	<circle
   id="rightShoulder"
   cx="-58.697803"
   cy="633.28296"
   r="8.1999998"
   transform="rotate(-60)" />
	<circle
   id="rightElbow"
   cx="-175.55235"
   cy="633.38293"
   r="8.1999998"
   transform="rotate(-60)" />
	<circle
   id="rightWrist"
   cx="-325.59784"
   cy="639.78296"
   r="8.1999998"
   transform="rotate(-60)" />
	<circle
   id="rightHip"
   cx="569.20001"
   cy="584.07788"
   r="8.1999998" />
	<circle
   id="rightKnee"
   cx="575.59998"
   cy="744.27789"
   r="8.1999998" />
	<circle
   id="rightAnkle"
   cx="575.59998"
   cy="952.27789"
   r="8.1999998" />
	<circle
   id="leftElbow"
   cx="821.43414"
   cy="-448.62796"
   r="8.1999998"
   transform="rotate(60)" />
	<circle
   id="leftWrist"
   cx="951.44775"
   cy="-443.28183"
   r="8.1999998"
   transform="rotate(60)" />
	<circle
   id="leftHip"
   cx="685.59998"
   cy="583.27789"
   r="8.1999998" />
	<circle
   id="leftKnee"
   cx="685.59998"
   cy="744.27789"
   r="8.1999998" />
	<circle
   id="leftAnkle"
   cx="685.59998"
   cy="952.27789"
   r="8.1999998" />
	<circle
   id="rightEye0"
   cx="594.70001"
   cy="215.10001"
   r="0.80000001" />
	<circle
   id="rightBrow1"
   cx="592.5"
   cy="203.2"
   r="0.80000001" />
	<circle
   id="rightBrow4"
   cx="615.79999"
   cy="206.2"
   r="0.80000001" />
	<circle
   id="nose1"
   cx="623.70001"
   cy="216.10001"
   r="0.80000001" />
	<circle
   id="rightBrow3"
   cx="606"
   cy="202.2"
   r="0.80000001" />
	<circle
   id="rightEye1"
   cx="599.90002"
   cy="211.39999"
   r="0.80000001" />
	<circle
   id="rightBrow0"
   cx="588.5"
   cy="206.89999"
   r="0.80000001" />
	<circle
   id="rightBrow2"
   cx="598.70001"
   cy="202.2"
   r="0.80000001" />
	<circle
   id="rightEye5"
   cx="599.90002"
   cy="217.39999"
   r="0.80000001" />
	<circle
   id="rightEye2"
   cx="606.20001"
   cy="211.39999"
   r="0.80000001" />
	<circle
   id="rightEye3"
   cx="611.40002"
   cy="215.60001"
   r="0.80000001" />
	<circle
   id="nose0"
   cx="623.70001"
   cy="210.3"
   r="0.80000001" />
	<circle
   id="nose3"
   cx="623.70001"
   cy="228.7"
   r="0.80000001" />
	<circle
   id="rightNose0"
   cx="613"
   cy="233.2"
   r="0.80000001" />
	<circle
   id="rightMouthCorner"
   cx="607"
   cy="255.3"
   r="0.80000001" />
	<circle
   id="rightNose1"
   cx="618.20001"
   cy="233.2"
   r="0.80000001" />
	<circle
   id="rightUpperLipTop0"
   cx="613.90002"
   cy="251.89999"
   r="0.80000001" />
	<circle
   id="nose2"
   cx="623.70001"
   cy="221.60001"
   r="0.80000001" />
	<circle
   id="nose4"
   cx="623.70001"
   cy="234"
   r="0.80000001" />
	<circle
   id="upperLipTopMid"
   cx="624.5"
   cy="251.7"
   r="0.80000001" />
	<circle
   id="rightUpperLipTop1"
   cx="620.40002"
   cy="250.8"
   r="0.80000001" />
	<path
   id="rightMiddleLip"
   d="m 610.6,254.8 c 0.4,0 0.8,0.4 0.8,0.8 0,0.4 -0.4,0.8 -0.8,0.8 -0.4,0 -0.8,-0.4 -0.8,-0.8 0,-0.4 0.4,-0.8 0.8,-0.8 z" />
	<circle
   id="lowerLipBottomMid"
   cx="624.5"
   cy="264.89999"
   r="0.80000001" />
	<circle
   id="upperLipBottomMid"
   cx="624.5"
   cy="255.3"
   r="0.80000001" />
	<circle
   id="lowerLipTopMid"
   cx="624.5"
   cy="258.39999"
   r="0.80000001" />
	<circle
   id="rightUpperLipBottom1"
   cx="620.59998"
   cy="254.8"
   r="0.80000001" />
	<circle
   id="rightLowerLipTop0"
   cx="620.59998"
   cy="257.70001"
   r="0.80000001" />
	<circle
   id="rightLowerLipBottom1"
   cx="620.40002"
   cy="264.39999"
   r="0.80000001" />
	<circle
   id="rightLowerLipBottom0"
   cx="613.40002"
   cy="261.60001"
   r="0.80000001" />
	<circle
   id="rightEye4"
   cx="606.20001"
   cy="216.60001"
   r="0.80000001" />
	<circle
   id="jawMid"
   cx="624.5"
   cy="290.70001"
   r="0.80000001" />
	<circle
   id="rightJaw7"
   cx="609.5"
   cy="287.5"
   r="0.80000001" />
	<circle
   id="rightJaw6"
   cx="599.5"
   cy="280.79999"
   r="0.80000001" />
	<circle
   id="rightJaw5"
   cx="587.90002"
   cy="268.29999"
   r="0.80000001" />
	<circle
   id="rightJaw4"
   cx="581.09998"
   cy="248.3"
   r="0.80000001" />
	<circle
   id="rightJaw3"
   cx="580.29999"
   cy="226.60001"
   r="0.80000001" />
	<circle
   id="rightJaw2"
   cx="580.29999"
   cy="217.10001"
   r="0.80000001" />
	<circle
   id="rightJaw1"
   cx="581.09998"
   cy="205.39999"
   r="0.80000001" />
	<circle
   id="rightJaw0"
   cx="583.59998"
   cy="196.10001"
   r="0.80000001" />
	<circle
   id="topMid"
   cx="624.70001"
   cy="170"
   r="0.80000001" />
	<circle
   id="leftTop0"
   cx="644.40002"
   cy="172.5"
   r="0.80000001" />
	<circle
   id="leftTop1"
   cx="657"
   cy="182"
   r="0.80000001" />
	<circle
   id="leftEye0"
   cx="654.29999"
   cy="215.10001"
   r="0.80000001" />
	<circle
   id="leftBrow1"
   cx="656.20001"
   cy="203.60001"
   r="0.80000001" />
	<circle
   id="leftBrow4"
   cx="632.59998"
   cy="205.7"
   r="0.80000001" />
	<circle
   id="leftBrow3"
   cx="642.59998"
   cy="202.5"
   r="0.80000001" />
	<circle
   id="leftEye1"
   cx="649.09998"
   cy="211.39999"
   r="0.80000001" />
	<circle
   id="leftBrow0"
   cx="660.20001"
   cy="206.5"
   r="0.80000001" />
	<circle
   id="leftBrow2"
   cx="649.90002"
   cy="202.10001"
   r="0.80000001" />
	<circle
   id="leftEye5"
   cx="649.09998"
   cy="217.39999"
   r="0.80000001" />
	<circle
   id="leftEye2"
   cx="642.79999"
   cy="211.39999"
   r="0.80000001" />
	<circle
   id="leftEye3"
   cx="637.59998"
   cy="215.60001"
   r="0.80000001" />
	<circle
   id="leftNose0"
   cx="634.09998"
   cy="233.2"
   r="0.80000001" />
	<circle
   id="leftMouthCorner"
   cx="642"
   cy="255.3"
   r="0.80000001" />
	<circle
   id="leftNose1"
   cx="629.29999"
   cy="233.2"
   r="0.80000001" />
	<circle
   id="leftUpperLipTop0"
   cx="635.09998"
   cy="251.89999"
   r="0.80000001" />
	<circle
   id="leftUpperLipTop1"
   cx="628.70001"
   cy="250.8"
   r="0.80000001" />
	<path
   id="leftMiddleLip"
   d="m 638.4,254.8 c 0.4,0 0.8,0.4 0.8,0.8 0,0.4 -0.4,0.8 -0.8,0.8 -0.4,0 -0.8,-0.4 -0.8,-0.8 0,-0.4 0.4,-0.8 0.8,-0.8 z" />
	<circle
   id="leftUpperLipBottom1"
   cx="628.5"
   cy="254.8"
   r="0.80000001" />
	<circle
   id="leftLowerLipTop0"
   cx="628.5"
   cy="257.70001"
   r="0.80000001" />
	<circle
   id="leftLowerLipBottom1"
   cx="628.70001"
   cy="264.39999"
   r="0.80000001" />
	<circle
   id="leftLowerLipBottom0"
   cx="635.59998"
   cy="261.60001"
   r="0.80000001" />
	<circle
   id="leftEye4"
   cx="642.79999"
   cy="216.60001"
   r="0.80000001" />
	<circle
   id="leftJaw7"
   cx="639.29999"
   cy="287.89999"
   r="0.80000001" />
	<circle
   id="leftJaw6"
   cx="649.29999"
   cy="281.20001"
   r="0.80000001" />
	<circle
   id="leftJaw5"
   cx="660.90002"
   cy="268.60001"
   r="0.80000001" />
	<circle
   id="leftJaw4"
   cx="667.70001"
   cy="248.60001"
   r="0.80000001" />
	<circle
   id="leftJaw3"
   cx="668.5"
   cy="227"
   r="0.80000001" />
	<circle
   id="leftJaw2"
   cx="668.5"
   cy="217.39999"
   r="0.80000001" />
	<circle
   id="leftJaw1"
   cx="667.70001"
   cy="205.7"
   r="0.80000001" />
	<circle
   id="leftJaw0"
   cx="665.20001"
   cy="196.5"
   r="0.80000001" />
	<circle
   id="rightTop0"
   cx="604.79999"
   cy="172.5"
   r="0.80000001" />
	<circle
   id="rightTop1"
   cx="592.20001"
   cy="182"
   r="0.80000001" />
	<circle
   id="leftShoulder"
   cx="683.64777"
   cy="-449.28183"
   r="8.1999998"
   transform="rotate(60)" />
</g>
</svg>
