<?xml version="1.0" encoding="UTF-8" standalone="no"?>
<svg
   xmlns:dc="http://purl.org/dc/elements/1.1/"
   xmlns:cc="http://creativecommons.org/ns#"
   xmlns:rdf="http://www.w3.org/1999/02/22-rdf-syntax-ns#"
   xmlns:svg="http://www.w3.org/2000/svg"
   xmlns="http://www.w3.org/2000/svg"
   xmlns:sodipodi="http://sodipodi.sourceforge.net/DTD/sodipodi-0.dtd"
   xmlns:inkscape="http://www.inkscape.org/namespaces/inkscape"
   version="1.1"
   id="Layer_1"
   x="0px"
   y="0px"
   width="1200px"
   height="1200px"
   viewBox="0 0 1200 1200"
   style="enable-background:new 0 0 1200 1200;"
   xml:space="preserve"
   sodipodi:docname="tshirt1.svg"
   inkscape:version="1.0.1 (3bc2e813f5, 2020-09-07)"><metadata
   id="metadata1943"><rdf:RDF><cc:Work
       rdf:about=""><dc:format>image/svg+xml</dc:format><dc:type
         rdf:resource="http://purl.org/dc/dcmitype/StillImage" /><dc:title></dc:title></cc:Work></rdf:RDF></metadata><defs
   id="defs1941" /><sodipodi:namedview
   pagecolor="#ffffff"
   bordercolor="#666666"
   borderopacity="1"
   objecttolerance="10"
   gridtolerance="10"
   guidetolerance="10"
   inkscape:pageopacity="0"
   inkscape:pageshadow="2"
   inkscape:window-width="1600"
   inkscape:window-height="847"
   id="namedview1939"
   showgrid="false"
   inkscape:zoom="1.0633333"
   inkscape:cx="682.24532"
   inkscape:cy="474.08335"
   inkscape:window-x="-8"
   inkscape:window-y="-8"
   inkscape:window-maximized="1"
   inkscape:current-layer="layer1"
   showguides="true"
   inkscape:guide-bbox="true"><sodipodi:guide
     position="628.21317,635.26646"
     orientation="1,0"
     id="guide2515" /></sodipodi:namedview>
<g
   id="skeleton_1_">
	<polygon
   style="fill:none;stroke:#000000;stroke-miterlimit:10"
   points="685.5,564.5 731.7,349.5 518.8,349.5 569.1,565.3 "
   id="polygon1822" />
	<polyline
   style="fill:none;stroke:#000000;stroke-miterlimit:10"
   points="517.8,349.5 415.1,349.5 251.8,355.8  "
   id="polyline1824" />
	<polyline
   style="fill:none;stroke:#000000;stroke-miterlimit:10"
   points="733.2,349.1 836.4,349.1 999.7,355.5  "
   id="polyline1826" />
	<polyline
   style="fill:none;stroke:#000000;stroke-miterlimit:10"
   points="569.1,565.3 575.5,725.5 575.5,933.5  "
   id="polyline1828" />
	<polyline
   style="fill:none;stroke:#000000;stroke-miterlimit:10"
   points="685.5,564.5 685.5,725.5 685.5,933.5  "
   id="polyline1830" />
	<polyline
   style="fill:none;stroke:#000000;stroke-miterlimit:10"
   points="624.5,170 604.7,172.5 592.2,182 583.6,196.1    581.1,205.4 580.3,217.1 580.3,226.6 581.1,248.3 587.9,268.3 599.5,280.8 609.5,287.5 624.5,290.7 639.3,287.9 649.3,281.2    660.9,268.6 667.7,248.6 668.5,227 668.5,217.4 667.7,205.7 665.2,196.5 657,182 644.4,172.5 624.5,170  "
   id="polyline1832" />
	<polyline
   style="fill:none;stroke:#000000;stroke-miterlimit:10"
   points="588.5,206.9 592.5,203.2 598.7,202.2 606,202.2    615.8,206.2  "
   id="polyline1834" />
	<polygon
   style="fill:none;stroke:#000000;stroke-miterlimit:10"
   points="606.2,211.4 611.4,215.6 606.2,216.6 599.9,217.4 594.7,215.1 599.9,211.4 "
   id="polygon1836" />
	<polyline
   style="fill:none;stroke:#000000;stroke-miterlimit:10"
   points="613,233.2 618.2,233.2 623.7,234 623.7,228.7    623.7,221.6 623.7,216.1 623.7,210.3  "
   id="polyline1838" />
	<polyline
   style="fill:none;stroke:#000000;stroke-miterlimit:10"
   points="660,206.5 656,203.6 649.7,202.1 642.4,202.5    632.4,205.7  "
   id="polyline1840" />
	<polygon
   style="fill:none;stroke:#000000;stroke-miterlimit:10"
   points="642.5,211.4 637.4,215.6 642.5,216.6 648.8,217.4 654.1,215.1 648.8,211.4 "
   id="polygon1842" />
	<polyline
   style="fill:none;stroke:#000000;stroke-miterlimit:10"
   points="634.1,233.2 629.1,233.2 623.7,234  "
   id="polyline1844" />
	<polygon
   style="fill:none;stroke:#000000;stroke-miterlimit:10"
   points="620.4,250.8 624.5,251.7 628.7,250.8 635.1,251.9 642,255.3 635.6,261.6 628.5,264.4 624.5,264.9 620.4,264.4 613.4,261.6 607,255.3 613.9,251.9 "
   id="polygon1846" />
	<polyline
   style="fill:none;stroke:#000000;stroke-miterlimit:10"
   points="607,255.3 610.6,255.6 620.6,254.8 624.5,255.3    628.5,254.8 638.4,255.6 642,255.3  "
   id="polyline1848" />
	<polyline
   style="fill:none;stroke:#000000;stroke-miterlimit:10"
   points="607,255.3 610.6,255.6 620.6,257.7 624.5,258.5    628.5,257.7 638.4,255.6 642,255.3  "
   id="polyline1850" />
	<circle
   id="rightShoulder"
   cx="518.90002"
   cy="349.20001"
   r="8.1999998" />
	<circle
   id="rightElbow"
   cx="415.39999"
   cy="349.29999"
   r="8.1999998" />
	<circle
   id="rightWrist"
   cx="252"
   cy="355.70001"
   r="8.1999998" />
	<circle
   id="rightHip"
   cx="569.20001"
   cy="565"
   r="8.1999998" />
	<circle
   id="rightKnee"
   cx="575.59998"
   cy="725.20001"
   r="8.1999998" />
	<circle
   id="rightAnkle"
   cx="575.59998"
   cy="933.20001"
   r="8.1999998" />
	<circle
   id="leftElbow"
   cx="836.20001"
   cy="348.89999"
   r="8.1999998" />
	<circle
   id="leftWrist"
   cx="999.59998"
   cy="355.20001"
   r="8.1999998" />
	<circle
   id="leftHip"
   cx="685.59998"
   cy="564.20001"
   r="8.1999998" />
	<circle
   id="leftKnee"
   cx="685.59998"
   cy="725.20001"
   r="8.1999998" />
	<circle
   id="leftAnkle"
   cx="685.59998"
   cy="933.20001"
   r="8.1999998" />
	<circle
   id="rightEye0"
   cx="594.70001"
   cy="215.10001"
   r="0.80000001" />
	<circle
   id="rightBrow1"
   cx="592.5"
   cy="203.2"
   r="0.80000001" />
	<circle
   id="rightBrow4"
   cx="615.79999"
   cy="206.2"
   r="0.80000001" />
	<circle
   id="nose1"
   cx="623.70001"
   cy="216.10001"
   r="0.80000001" />
	<circle
   id="rightBrow3"
   cx="606"
   cy="202.2"
   r="0.80000001" />
	<circle
   id="rightEye1"
   cx="599.90002"
   cy="211.39999"
   r="0.80000001" />
	<circle
   id="rightBrow0"
   cx="588.5"
   cy="206.89999"
   r="0.80000001" />
	<circle
   id="rightBrow2"
   cx="598.70001"
   cy="202.2"
   r="0.80000001" />
	<circle
   id="rightEye5"
   cx="599.90002"
   cy="217.39999"
   r="0.80000001" />
	<circle
   id="rightEye2"
   cx="606.20001"
   cy="211.39999"
   r="0.80000001" />
	<circle
   id="rightEye3"
   cx="611.40002"
   cy="215.60001"
   r="0.80000001" />
	<circle
   id="nose0"
   cx="623.70001"
   cy="210.3"
   r="0.80000001" />
	<circle
   id="nose3"
   cx="623.70001"
   cy="228.7"
   r="0.80000001" />
	<circle
   id="rightNose0"
   cx="613"
   cy="233.2"
   r="0.80000001" />
	<circle
   id="rightMouthCorner"
   cx="607"
   cy="255.3"
   r="0.80000001" />
	<circle
   id="rightNose1"
   cx="618.20001"
   cy="233.2"
   r="0.80000001" />
	<circle
   id="rightUpperLipTop0"
   cx="613.90002"
   cy="251.89999"
   r="0.80000001" />
	<circle
   id="nose2"
   cx="623.70001"
   cy="221.60001"
   r="0.80000001" />
	<circle
   id="nose4"
   cx="623.70001"
   cy="234"
   r="0.80000001" />
	<circle
   id="upperLipTopMid"
   cx="624.5"
   cy="251.7"
   r="0.80000001" />
	<circle
   id="rightUpperLipTop1"
   cx="620.40002"
   cy="250.8"
   r="0.80000001" />
	<path
   id="rightMiddleLip"
   d="m 610.6,254.8 c 0.4,0 0.8,0.4 0.8,0.8 0,0.4 -0.4,0.8 -0.8,0.8 -0.4,0 -0.8,-0.4 -0.8,-0.8 0,-0.4 0.4,-0.8 0.8,-0.8 z" />
	<circle
   id="lowerLipBottomMid"
   cx="624.5"
   cy="264.89999"
   r="0.80000001" />
	<circle
   id="upperLipBottomMid"
   cx="624.5"
   cy="255.3"
   r="0.80000001" />
	<circle
   id="lowerLipTopMid"
   cx="624.5"
   cy="258.39999"
   r="0.80000001" />
	<circle
   id="rightUpperLipBottom1"
   cx="620.59998"
   cy="254.8"
   r="0.80000001" />
	<circle
   id="rightLowerLipTop0"
   cx="620.59998"
   cy="257.70001"
   r="0.80000001" />
	<circle
   id="rightLowerLipBottom1"
   cx="620.40002"
   cy="264.39999"
   r="0.80000001" />
	<circle
   id="rightLowerLipBottom0"
   cx="613.40002"
   cy="261.60001"
   r="0.80000001" />
	<circle
   id="rightEye4"
   cx="606.20001"
   cy="216.60001"
   r="0.80000001" />
	<circle
   id="jawMid"
   cx="624.5"
   cy="290.70001"
   r="0.80000001" />
	<circle
   id="rightJaw7"
   cx="609.5"
   cy="287.5"
   r="0.80000001" />
	<circle
   id="rightJaw6"
   cx="599.5"
   cy="280.79999"
   r="0.80000001" />
	<circle
   id="rightJaw5"
   cx="587.90002"
   cy="268.29999"
   r="0.80000001" />
	<circle
   id="rightJaw4"
   cx="581.09998"
   cy="248.3"
   r="0.80000001" />
	<circle
   id="rightJaw3"
   cx="580.29999"
   cy="226.60001"
   r="0.80000001" />
	<circle
   id="rightJaw2"
   cx="580.29999"
   cy="217.10001"
   r="0.80000001" />
	<circle
   id="rightJaw1"
   cx="581.09998"
   cy="205.39999"
   r="0.80000001" />
	<circle
   id="rightJaw0"
   cx="583.59998"
   cy="196.10001"
   r="0.80000001" />
	<circle
   id="topMid"
   cx="624.70001"
   cy="170"
   r="0.80000001" />
	<circle
   id="leftTop0"
   cx="644.40002"
   cy="172.5"
   r="0.80000001" />
	<circle
   id="leftTop1"
   cx="657"
   cy="182"
   r="0.80000001" />
	<circle
   id="leftEye0"
   cx="654.29999"
   cy="215.10001"
   r="0.80000001" />
	<circle
   id="leftBrow1"
   cx="656.20001"
   cy="203.60001"
   r="0.80000001" />
	<circle
   id="leftBrow4"
   cx="632.59998"
   cy="205.7"
   r="0.80000001" />
	<circle
   id="leftBrow3"
   cx="642.59998"
   cy="202.5"
   r="0.80000001" />
	<circle
   id="leftEye1"
   cx="649.09998"
   cy="211.39999"
   r="0.80000001" />
	<circle
   id="leftBrow0"
   cx="660.20001"
   cy="206.5"
   r="0.80000001" />
	<circle
   id="leftBrow2"
   cx="649.90002"
   cy="202.10001"
   r="0.80000001" />
	<circle
   id="leftEye5"
   cx="649.09998"
   cy="217.39999"
   r="0.80000001" />
	<circle
   id="leftEye2"
   cx="642.79999"
   cy="211.39999"
   r="0.80000001" />
	<circle
   id="leftEye3"
   cx="637.59998"
   cy="215.60001"
   r="0.80000001" />
	<circle
   id="leftNose0"
   cx="634.09998"
   cy="233.2"
   r="0.80000001" />
	<circle
   id="leftMouthCorner"
   cx="642"
   cy="255.3"
   r="0.80000001" />
	<circle
   id="leftNose1"
   cx="629.29999"
   cy="233.2"
   r="0.80000001" />
	<circle
   id="leftUpperLipTop0"
   cx="635.09998"
   cy="251.89999"
   r="0.80000001" />
	<circle
   id="leftUpperLipTop1"
   cx="628.70001"
   cy="250.8"
   r="0.80000001" />
	<path
   id="leftMiddleLip"
   d="m 638.4,254.8 c 0.4,0 0.8,0.4 0.8,0.8 0,0.4 -0.4,0.8 -0.8,0.8 -0.4,0 -0.8,-0.4 -0.8,-0.8 0,-0.4 0.4,-0.8 0.8,-0.8 z" />
	<circle
   id="leftUpperLipBottom1"
   cx="628.5"
   cy="254.8"
   r="0.80000001" />
	<circle
   id="leftLowerLipTop0"
   cx="628.5"
   cy="257.70001"
   r="0.80000001" />
	<circle
   id="leftLowerLipBottom1"
   cx="628.70001"
   cy="264.39999"
   r="0.80000001" />
	<circle
   id="leftLowerLipBottom0"
   cx="635.59998"
   cy="261.60001"
   r="0.80000001" />
	<circle
   id="leftEye4"
   cx="642.79999"
   cy="216.60001"
   r="0.80000001" />
	<circle
   id="leftJaw7"
   cx="639.29999"
   cy="287.89999"
   r="0.80000001" />
	<circle
   id="leftJaw6"
   cx="649.29999"
   cy="281.20001"
   r="0.80000001" />
	<circle
   id="leftJaw5"
   cx="660.90002"
   cy="268.60001"
   r="0.80000001" />
	<circle
   id="leftJaw4"
   cx="667.70001"
   cy="248.60001"
   r="0.80000001" />
	<circle
   id="leftJaw3"
   cx="668.5"
   cy="227"
   r="0.80000001" />
	<circle
   id="leftJaw2"
   cx="668.5"
   cy="217.39999"
   r="0.80000001" />
	<circle
   id="leftJaw1"
   cx="667.70001"
   cy="205.7"
   r="0.80000001" />
	<circle
   id="leftJaw0"
   cx="665.20001"
   cy="196.5"
   r="0.80000001" />
	<circle
   id="rightTop0"
   cx="604.79999"
   cy="172.5"
   r="0.80000001" />
	<circle
   id="rightTop1"
   cx="592.20001"
   cy="182"
   r="0.80000001" />
	<circle
   id="leftShoulder"
   cx="731.79999"
   cy="349.20001"
   r="8.1999998" />
</g>
<g
   inkscape:groupmode="layer"
   id="layer1"
   inkscape:label="illustration"><path
     style="opacity:0.993;fill:none;stroke:#000000;stroke-width:2;stroke-miterlimit:4;stroke-dasharray:none"
     id="path2509"
     sodipodi:type="arc"
     sodipodi:cx="644.20062"
     sodipodi:cy="396.6301"
     sodipodi:rx="25.39185"
     sodipodi:ry="16.22257"
     sodipodi:start="0"
     sodipodi:end="0.0087266463"
     sodipodi:arc-type="chord"
     d="m 669.59247,396.6301 a 25.39185,16.22257 0 0 1 -9.6e-4,0.14156 z"
     sodipodi:open="true" /><path
     style="opacity:0.993;fill:none;stroke:#000000;stroke-width:2;stroke-miterlimit:4;stroke-dasharray:none"
     id="path2511"
     sodipodi:type="arc"
     sodipodi:cx="627.27271"
     sodipodi:cy="343.26019"
     sodipodi:rx="38.087776"
     sodipodi:ry="38.087776"
     sodipodi:start="0"
     sodipodi:end="3.1415927"
     sodipodi:arc-type="arc"
     d="m 665.36048,343.26019 a 38.087776,38.087776 0 0 1 -19.04389,32.98498 38.087776,38.087776 0 0 1 -38.08777,0 38.087776,38.087776 0 0 1 -19.04389,-32.98498"
     sodipodi:open="true" /><path
     style="fill:none;stroke:#000000;stroke-width:2;stroke-linecap:butt;stroke-linejoin:miter;stroke-miterlimit:4;stroke-dasharray:none;stroke-opacity:1"
     d="m 590.59561,344.20063 h -316.9279 v 37.14733 h 237.46082 l 38.08777,187.61756 78.99687,-4.23198"
     id="path2517" /><path
     style="fill:none;stroke:#000000;stroke-width:2;stroke-linecap:butt;stroke-linejoin:miter;stroke-miterlimit:4;stroke-dasharray:none;stroke-opacity:1"
     d="m 665.83073,344.20063 h 316.9279 v 37.14733 H 745.29781 l -38.08777,187.61756 -78.99687,-4.23198"
     id="path2517-1" /><path
     style="opacity:0.993;fill:#008000;stroke:#000000;stroke-width:1.88088;stroke-miterlimit:4;stroke-dasharray:none"
     d="m 549.60715,349.53007 c -7.4538,0.5492 -15.42137,-0.88303 -22.61646,1.23249 -0.51675,3.01357 -4.00542,4.47682 -5.042,6.78696 10.49788,52.26282 23.53458,104.00071 35.41408,155.96941 3.63845,14.25888 6.23917,29.05807 10.52599,42.99586 5.1048,0.28953 8.5705,4.03136 9.90951,8.76886 27.21851,-0.88173 55.03848,-0.71944 82.4978,-0.85411 5.60869,-0.64463 12.05342,0.93591 17.24199,-1.42168 0.60709,-5.06239 6.2329,-5.90522 9.51459,-8.45661 10.64866,-46.14949 20.07088,-92.73022 30.20058,-139.05455 3.87937,-19.4348 8.93812,-38.94982 12.08427,-58.33475 -3.3924,-1.25756 -4.11162,-5.1798 -6.76307,-6.91736 -17.69272,-1.51348 -35.59381,0.0246 -53.35791,-0.28245 -5.87104,-1.17816 -4.21558,7.15536 -7.09397,10.33447 -8.46579,18.19812 -31.94349,26.71987 -50.08826,18.45503 -12.04273,-4.54645 -19.8435,-16.17756 -23.24831,-28.02765 -7.97342,-2.29976 -16.77449,-0.59938 -25.02266,-1.20232 -4.71873,-0.009 -9.43745,4.7e-4 -14.15617,0.008 z"
     id="path2543" /><path
     style="opacity:0.993;fill:#008000;stroke:#000000;stroke-width:1.88088;stroke-miterlimit:4;stroke-dasharray:none"
     d="m 453.13318,349.52273 c -9.75884,0.55609 -19.90874,-0.99704 -29.46586,1.1682 -1.68743,3.725 -5.23755,7.29615 -9.83971,6.30388 -4.91409,0.0208 -5.11518,-7.27453 -10.17096,-6.22117 -41.2995,0.4647 -82.58827,2.49907 -123.84901,4.35164 -8.11366,-1.81484 -4.4017,7.63787 -5.18519,12.31905 1.34694,4.1924 -3.28475,14.43977 3.57808,13.68045 76.59569,0.26859 153.2249,-0.60833 229.79834,0.64445 5.34826,-1.49387 4.49709,4.19976 5.49505,7.67439 12.21179,59.37748 24.1636,118.80829 36.22343,178.21684 3.51508,1.03195 10.96866,1.74447 11.61957,-3.75808 0.31522,-3.42515 3.46277,-5.41348 5.38364,-7.6576 -15.76382,-65.74604 -30.61416,-131.75676 -46.16967,-197.53808 -2.08452,-3.00243 -7.18866,-1.79438 -8.74866,-5.77672 -0.42605,-5.95081 -7.86308,-2.51548 -11.86201,-3.41276 -15.60235,8.8e-4 -31.2047,-0.003 -46.80704,0.006 z"
     id="path2859" /><path
     style="opacity:0.993;fill:#008000;stroke:#000000;stroke-width:1.88088;stroke-miterlimit:4;stroke-dasharray:none"
     d="m 274.62245,345.57178 c -0.9944,5.98665 -0.0374,11.44726 7.36737,8.7514 41.37394,-1.97994 82.85842,-3.25014 124.20407,-4.57269 3.23403,-1.04593 1.03361,-5.25866 -1.90475,-4.39178 -42.94809,-1.16613 -85.94377,-0.2483 -128.90993,-0.54369 l -0.66499,0.66499 z"
     id="path2861" /><path
     style="opacity:0.993;fill:#008000;stroke:#000000;stroke-width:1.32998;stroke-miterlimit:4;stroke-dasharray:none"
     d="m 739.8788,349.60634 c -0.65283,4.52639 -4.70336,7.71983 -9.26701,7.60583 -2.4073,6.03693 -2.89285,13.13332 -4.55414,19.58683 -12.68625,59.52799 -25.37383,119.06393 -38.46115,178.49987 2.46649,2.53367 6.12528,5.24457 5.61346,9.46573 -0.30087,3.8706 4.14854,3.06423 6.63562,3.09766 3.76141,0.13959 8.55376,0.62154 7.91113,-4.65989 12.33766,-60.89005 24.67547,-121.78007 37.01341,-182.67007 78.81699,-0.002 157.63396,-0.005 236.45095,-0.009 1.81348,-2.95156 0.21679,-7.76553 0.75591,-11.39576 -0.41023,-4.59021 0.83396,-9.79551 -0.64551,-13.98818 -22.97263,-1.68406 -46.0603,-1.99133 -69.07966,-3.0799 -22.30702,-0.69607 -44.62198,-1.9998 -66.92912,-2.22054 -2.47322,0.37773 -2.02767,3.80401 -4.23672,4.86923 -4.24912,4.1223 -12.16464,0.70319 -12.7712,-5.04977 -5.16833,-1.34123 -11.1956,-0.18501 -16.6923,-0.57148 -23.67515,0 -47.35029,0 -71.02543,0 l -0.53881,0.38974 z"
     id="path2863" /><path
     style="opacity:0.993;fill:#008000;stroke:#000000;stroke-width:0.940439;stroke-miterlimit:4;stroke-dasharray:none"
     d="m 843.44716,345.0133 c -0.21274,1.96521 0.21901,5.23574 3.04657,4.38876 42.27438,1.85763 84.58087,2.95061 126.84328,5.05879 2.94611,0.16923 6.0682,0.52564 8.92775,-0.0174 0.25476,-3.09475 0.4031,-6.4879 -0.0983,-9.53296 -16.40071,-0.40375 -32.93223,-0.0569 -49.38314,-0.17266 -29.58433,0 -59.16866,0 -88.753,0 l -0.42516,0.20086 z"
     id="path2865" /><path
     style="opacity:0.993;fill:#008000;stroke:#000000;stroke-width:0.940439;stroke-miterlimit:4;stroke-dasharray:none"
     d="m 770.44284,344.74237 c -10.20883,0.19521 -20.47448,-0.34951 -30.64968,0.50145 -1.42574,0.39014 -0.76703,2.77532 0.18001,3.27959 11.48004,0.92414 23.06264,0.33842 34.58133,0.54329 17.63633,-0.1624 35.30176,0.36786 52.91989,-0.43583 1.38719,-0.0547 1.79228,-2.2594 1.13423,-3.16296 -4.90173,-1.13617 -10.14182,-0.397 -15.16454,-0.68636 -14.33362,-0.0603 -28.66753,-0.0401 -43.00124,-0.0392 z"
     id="path2867" /><path
     style="opacity:0.993;fill:#008000;stroke:#000000;stroke-width:0.940439;stroke-miterlimit:4;stroke-dasharray:none"
     d="m 666.16525,345.0133 c -0.4462,1.25598 -1.66328,4.14448 0.67961,4.13462 17.41663,0.57863 34.86309,0.20245 52.28804,0.0514 1.86056,-0.20724 5.5346,0.51873 5.3065,-2.41079 0.64276,-2.30391 -2.79419,-1.7215 -4.12061,-1.90431 -17.85455,-0.28876 -35.71392,-0.0831 -53.57036,-0.14647 l -0.42516,0.20086 z"
     id="path2869" /><path
     style="opacity:0.993;fill:#008000;stroke:#000000;stroke-width:0.940439;stroke-miterlimit:4;stroke-dasharray:none"
     d="m 525.99577,345.0133 c -0.13751,1.9601 0.57277,5.28541 3.3393,4.29 19.59247,0.002 39.18495,0.003 58.77743,0.003 1.4296,-0.94081 1.38539,-5.60682 -1.41066,-4.56811 -20.04096,0 -40.08192,0 -60.12288,0 l -0.42516,0.20086 z"
     id="path2871" /><path
     style="opacity:0.993;fill:#008000;stroke:#000000;stroke-width:0.940439;stroke-miterlimit:4;stroke-dasharray:none"
     d="m 422.37283,344.83586 c -0.23431,2.31034 0.94534,5.47774 3.89952,4.37744 28.01877,-0.0282 56.03754,-0.0575 84.05632,-0.0876 1.43363,-0.92306 2.72183,-5.54386 -0.53543,-4.56536 -28.94574,0 -57.89148,0 -86.83722,0 l -0.42516,0.20087 z"
     id="path2873" /></g></svg>
