<?xml version="1.0" encoding="UTF-8" standalone="no"?>
<svg
   xmlns:dc="http://purl.org/dc/elements/1.1/"
   xmlns:cc="http://creativecommons.org/ns#"
   xmlns:rdf="http://www.w3.org/1999/02/22-rdf-syntax-ns#"
   xmlns:svg="http://www.w3.org/2000/svg"
   xmlns="http://www.w3.org/2000/svg"
   xmlns:sodipodi="http://sodipodi.sourceforge.net/DTD/sodipodi-0.dtd"
   xmlns:inkscape="http://www.inkscape.org/namespaces/inkscape"
   version="1.1"
   id="Layer_1"
   x="0px"
   y="0px"
   width="1000px"
   height="1000px"
   viewBox="0 0 1000 1000"
   style="enable-background:new 0 0 1000 1000;"
   xml:space="preserve"
   sodipodi:docname="short-sleeve-final-japan.svg"
   inkscape:version="1.0.1 (3bc2e813f5, 2020-09-07)"><metadata
   id="metadata241"><rdf:RDF><cc:Work
       rdf:about=""><dc:format>image/svg+xml</dc:format><dc:type
         rdf:resource="http://purl.org/dc/dcmitype/StillImage" /><dc:title /></cc:Work></rdf:RDF></metadata><defs
   id="defs239" /><sodipodi:namedview
   pagecolor="#ffffff"
   bordercolor="#666666"
   borderopacity="1"
   objecttolerance="10"
   gridtolerance="10"
   guidetolerance="10"
   inkscape:pageopacity="0"
   inkscape:pageshadow="2"
   inkscape:window-width="960"
   inkscape:window-height="1013"
   id="namedview237"
   showgrid="false"
   inkscape:zoom="1.5692192"
   inkscape:cx="540.41735"
   inkscape:cy="465.06893"
   inkscape:window-x="942"
   inkscape:window-y="0"
   inkscape:window-maximized="0"
   inkscape:current-layer="illustration"
   showguides="true"
   inkscape:guide-bbox="true"
   inkscape:document-rotation="0"
   inkscape:snap-global="false"><sodipodi:guide
     position="398.67303,753.41335"
     orientation="0,-1"
     id="guide245" /></sodipodi:namedview>
<g
   id="illustration">
	
	
	
	
	
	
	
	
	
	<path
   style="display:inline;opacity:0.5;fill:#abd1d5;stroke-width:1.06609"
   d="m 398.58153,522.22831 c 0,-53.75862 2.70399,-100.64833 -19.95385,-197.36359 25.61105,-32.00191 -4.60597,-91.84019 47.87026,-78.13555 67.29195,34.86994 8.18863,0.4327 78.75366,41.16262 73.21069,-41.81477 9.15488,-4.14224 65.71775,-41.0627 69.26205,-16.28429 56.77062,68.86248 55.6179,88.36741 -27.16441,64.00711 -26.53936,137.57202 -25.63732,188.65606 z"
   id="path20"
   sodipodi:nodetypes="cccccccc" />
	<line
   style="opacity:0.5;fill:none"
   x1="616.79999"
   y1="509.60001"
   x2="384"
   y2="509.60001"
   id="line22" />
	<ellipse
   style="opacity:0.5;fill:none"
   cx="500.89999"
   cy="304.29999"
   rx="22"
   ry="16.299999"
   id="ellipse24" />
	<path
   style="fill:none"
   d="m 843.8,326.2 17,-6.8 c 0,0 6.1,5.5 13,11.2 6.9,5.7 -4.7,18.4 -15.3,10.6 -10.7,-7.8 -14.7,-15 -14.7,-15 z"
   id="path26" />
	
	<path
   style="display:inline;opacity:0.5;fill:#808080;fill-opacity:1;stroke-width:0.87442"
   d="m 601.82154,244.40761 11.93082,97.61899 c 16.36724,-20.4337 41.03934,-20.55984 76.74418,-21.06437 v -71.64412 c -33.94688,-4.28855 -41.79031,-28.37579 -88.675,-4.9105 z"
   id="path30"
   sodipodi:nodetypes="ccccc" />
	<path
   style="fill:none"
   d="m 291,273.7 c -47.7,2.7 -123.1,8.9 -160.2,14.2 -37.1,5.3 -40.1,40.1 5.3,39.5 45.4,-0.6 95.2,-3.5 159.7,-12.1 z"
   id="path32" />
	<path
   style="fill:none"
   d="m 155.6,326.2 -17,-6.8 c 0,0 -6.1,5.5 -13,11.2 -6.9,5.7 4.7,18.4 15.3,10.6 10.7,-7.8 14.7,-15 14.7,-15 z"
   id="path34" />
	<path
   style="fill:none"
   d="m 709.7,318.3 c 64.5,8.6 113.3,11.5 158.7,12.1 45.4,0.6 42.4,-34.2 5.3,-39.5 -37.1,-5.3 -114.5,-11.5 -162.2,-14.2 z"
   id="path36" />
	<path
   style="opacity:0.5;fill:none"
   d="m 489.5,211.9 h 20.9 c 0,0 4.3,67.3 5.7,90.8 -2.1,9.7 -9.1,11.3 -15.5,11.1 -8.2,-0.2 -15.9,-4.7 -17.1,-12.5 z"
   id="path38" />
	<path
   style="opacity:0.5;fill:none"
   d="m 489.5,211.9 h 20.9 c 1.9,19 -21.6,89.4 -26.8,89.4 z"
   id="path40" />
	<path
   style="fill:none"
   d="m 499,113 c -27,0 -89,8 -56,64 24.8,42.1 88,44 110,3 22,-41 -4,-67 -54,-67 z"
   id="path42" />
	<circle
   style="fill:none"
   cx="560.20001"
   cy="182.8"
   r="12.1"
   id="circle44" />
	<circle
   style="fill:none"
   cx="437.60001"
   cy="182.8"
   r="12.1"
   id="circle46" />
	<ellipse
   style="fill:none"
   cx="499.79999"
   cy="177.39999"
   rx="57"
   ry="57.599998"
   id="ellipse48" />
	
	<g
   id="g72"
   style="fill:none">
		<ellipse
   style="fill:none"
   cx="464.10001"
   cy="196.5"
   rx="7.8000002"
   ry="6.1999998"
   id="ellipse62" />
		<ellipse
   style="fill:none"
   cx="464"
   cy="180.60001"
   rx="3.5999999"
   ry="5.8000002"
   id="ellipse64" />
		<circle
   id="rightEye0_1_"
   cx="468.60001"
   cy="160.2"
   r="0.80000001"
   style="fill:none" />
		<circle
   id="rightEye1_1_"
   cx="473.79999"
   cy="156.5"
   r="0.80000001"
   style="fill:none" />
		<circle
   id="rightEye5_1_"
   cx="473.79999"
   cy="162.5"
   r="0.80000001"
   style="fill:none" />
		<circle
   id="rightEye2_1_"
   cx="480.10001"
   cy="156.5"
   r="0.80000001"
   style="fill:none" />
		<circle
   id="rightEye3_1_"
   cx="485.29999"
   cy="160.7"
   r="0.80000001"
   style="fill:none" />
		<circle
   id="rightEye4_1_"
   cx="480.10001"
   cy="161.7"
   r="0.80000001"
   style="fill:none" />
	</g>
	<g
   id="g84"
   style="fill:none">
		<ellipse
   style="fill:none"
   cx="532.79999"
   cy="179.60001"
   rx="3.5999999"
   ry="5.8000002"
   id="ellipse74" />
		<ellipse
   style="fill:none"
   cx="533.20001"
   cy="196.5"
   rx="7.8000002"
   ry="6.1999998"
   id="ellipse76" />
		<circle
   id="leftEye0_1_"
   cx="528.20001"
   cy="160.2"
   r="0.80000001"
   style="fill:none" />
		<circle
   id="leftEye1_1_"
   cx="523"
   cy="156.5"
   r="0.80000001"
   style="fill:none" />
		<circle
   id="leftEye5_1_"
   cx="523"
   cy="162.5"
   r="0.80000001"
   style="fill:none" />
		<circle
   id="leftEye2_1_"
   cx="516.70001"
   cy="156.5"
   r="0.80000001"
   style="fill:none" />
		<circle
   id="leftEye3_1_"
   cx="511.5"
   cy="160.7"
   r="0.80000001"
   style="fill:none" />
		<circle
   id="leftEye4_1_"
   cx="516.70001"
   cy="161.7"
   r="0.80000001"
   style="fill:none" />
	</g>
	<g
   id="g93"
   style="fill:none">
		<path
   style="fill:none"
   d="m 518.8,159.9 c 10.7,-5 14.2,-5 19.2,0.7 -5,-0.7 -5.7,2.8 -19.2,-0.7 z"
   id="path86" />
		<circle
   id="leftBrow1_1_"
   cx="530.09998"
   cy="148.7"
   r="0.80000001"
   style="fill:none" />
		<circle
   id="leftBrow4_1_"
   cx="506.5"
   cy="150.8"
   r="0.80000001"
   style="fill:none" />
		<circle
   id="leftBrow3_1_"
   cx="516.5"
   cy="147.60001"
   r="0.80000001"
   style="fill:none" />
		<circle
   id="leftBrow0_1_"
   cx="534.09998"
   cy="151.60001"
   r="0.80000001"
   style="fill:none" />
		<circle
   id="leftBrow2_1_"
   cx="523.79999"
   cy="147.2"
   r="0.80000001"
   style="fill:none" />
	</g>
	<g
   id="g102"
   style="fill:none">
		<path
   style="fill:none"
   d="m 478,159.9 c -10.7,-5 -14.2,-5 -19.2,0.7 5,-0.7 5.7,2.8 19.2,-0.7 z"
   id="path95" />
		<circle
   id="rightBrow1_1_"
   cx="466.39999"
   cy="148.3"
   r="0.80000001"
   style="fill:none" />
		<circle
   id="rightBrow4_1_"
   cx="489.70001"
   cy="151.3"
   r="0.80000001"
   style="fill:none" />
		<circle
   id="rightBrow3_1_"
   cx="479.89999"
   cy="147.3"
   r="0.80000001"
   style="fill:none" />
		<circle
   id="rightBrow0_1_"
   cx="462.39999"
   cy="152"
   r="0.80000001"
   style="fill:none" />
		<circle
   id="rightBrow2_1_"
   cx="472.60001"
   cy="147.3"
   r="0.80000001"
   style="fill:none" />
	</g>
	<path
   style="fill:none"
   d="m 456,138 c 1.9,7.7 62.3,20.7 82,-3 10,-12 9,-22 4,-25 -4.4,-2.6 -9,-6 -22,6 -1,-9 1,-15 -16,-17 -27.8,-3.3 -52.4,21 -48,39 z"
   id="path104" />
	
<path
   style="display:inline;opacity:0.5;fill:#808080;fill-opacity:1;stroke-width:0.869189"
   d="m 395.51564,246.81463 -8.19731,122.31026 c -16.17199,-20.4337 -44.14092,-48.17866 -79.4198,-48.68319 l -1.05827,-72.32065 c 33.54189,-4.28855 56.98777,-34.72538 88.67538,-1.30642 z"
   id="path166"
   sodipodi:nodetypes="ccccc" /><rect
   style="opacity:0.5;fill:#ffffff;fill-opacity:1;stroke-width:1.55661"
   id="rect3032"
   width="198.825"
   height="95.588936"
   x="400.83627"
   y="332.64948" /><ellipse
   style="opacity:0.5;fill:#fb0000;fill-opacity:1;stroke-width:1.91976"
   id="path3034"
   cx="500.78326"
   cy="380.03897"
   rx="41.460052"
   ry="20.656933" /></g>
<g
   id="skeleton_1_"
   sodipodi:insensitive="true">
	<circle
   id="rightShoulder"
   cx="392.79999"
   cy="294.29999"
   r="8.1999998" />
	<circle
   id="rightElbow"
   cx="289.29999"
   cy="294.39999"
   r="8.1999998" />
	
		<circle
   id="rightWrist"
   transform="matrix(0.9951,-0.09853767,0.09853767,0.9951,-29.0274,13.8698)"
   cx="125.9"
   cy="300.79999"
   r="8.1999998" />
	<circle
   id="rightHip"
   cx="443.10001"
   cy="510.10001"
   r="8.1999998" />
	<circle
   id="rightKnee"
   cx="449.5"
   cy="670.29999"
   r="8.1999998" />
	<circle
   id="rightAnkle"
   cx="449.5"
   cy="878.29999"
   r="8.1999998" />
	<circle
   id="leftShoulder"
   cx="605.70001"
   cy="294.29999"
   r="8.1999998" />
	<circle
   id="leftElbow"
   cx="710.09998"
   cy="294"
   r="8.1999998" />
	<circle
   id="leftWrist"
   cx="873.5"
   cy="300.29999"
   r="8.1999998" />
	<circle
   id="leftHip"
   cx="559.5"
   cy="509.29999"
   r="8.1999998" />
	<circle
   id="leftKnee"
   cx="559.5"
   cy="670.29999"
   r="8.1999998" />
	<circle
   id="leftAnkle"
   cx="559.5"
   cy="878.29999"
   r="8.1999998" />
	<polygon
   style="fill:none;stroke:#000000;stroke-miterlimit:10"
   points="392.7,294.6 443,510.4 559.4,509.6 605.6,294.6 "
   id="polygon132" />
	<polyline
   style="fill:none;stroke:#000000;stroke-miterlimit:10"
   points="391.7,294.6 289,294.6 125.7,300.9  "
   id="polyline134" />
	<polyline
   style="fill:none;stroke:#000000;stroke-miterlimit:10"
   points="607.1,294.2 710.3,294.2 873.6,300.6  "
   id="polyline136" />
	<polyline
   style="fill:none;stroke:#000000;stroke-miterlimit:10"
   points="443,510.4 449.4,670.6 449.4,878.6  "
   id="polyline138" />
	<polyline
   style="fill:none;stroke:#000000;stroke-miterlimit:10"
   points="559.4,509.6 559.4,670.6 559.4,878.6  "
   id="polyline140" />
	<circle
   id="rightEye0"
   cx="468.60001"
   cy="160.2"
   r="0.80000001" />
	<circle
   id="rightBrow1"
   cx="466.39999"
   cy="148.3"
   r="0.80000001" />
	<circle
   id="rightBrow4"
   cx="489.70001"
   cy="151.3"
   r="0.80000001" />
	<circle
   id="nose1"
   cx="497.60001"
   cy="161.2"
   r="0.80000001" />
	<circle
   id="rightBrow3"
   cx="479.89999"
   cy="147.3"
   r="0.80000001" />
	<circle
   id="rightEye1"
   cx="473.79999"
   cy="156.5"
   r="0.80000001" />
	<circle
   id="rightBrow0"
   cx="462.39999"
   cy="152"
   r="0.80000001" />
	<circle
   id="rightBrow2"
   cx="472.60001"
   cy="147.3"
   r="0.80000001" />
	<circle
   id="rightEye5"
   cx="473.79999"
   cy="162.5"
   r="0.80000001" />
	<circle
   id="rightEye2"
   cx="480.10001"
   cy="156.5"
   r="0.80000001" />
	<circle
   id="rightEye3"
   cx="485.29999"
   cy="160.7"
   r="0.80000001" />
	<circle
   id="nose0"
   cx="497.60001"
   cy="155.39999"
   r="0.80000001" />
	<circle
   id="nose3"
   cx="497.60001"
   cy="173.8"
   r="0.80000001" />
	<circle
   id="rightNose0"
   cx="486.89999"
   cy="178.3"
   r="0.80000001" />
	<circle
   id="rightMouthCorner"
   cx="480.89999"
   cy="200.39999"
   r="0.80000001" />
	<circle
   id="rightNose1"
   cx="492.10001"
   cy="178.3"
   r="0.80000001" />
	<circle
   id="rightUpperLipTop0"
   cx="487.79999"
   cy="197"
   r="0.80000001" />
	<circle
   id="nose2"
   cx="497.60001"
   cy="166.7"
   r="0.80000001" />
	<circle
   id="nose4"
   cx="497.60001"
   cy="179.10001"
   r="0.80000001" />
	<circle
   id="upperLipTopMid"
   cx="498.39999"
   cy="196.8"
   r="0.80000001" />
	<circle
   id="rightUpperLipTop1"
   cx="494.29999"
   cy="195.89999"
   r="0.80000001" />
	<path
   id="rightMiddleLip"
   d="m 484.5,199.9 c 0.4,0 0.8,0.4 0.8,0.8 0,0.4 -0.4,0.8 -0.8,0.8 -0.4,0 -0.8,-0.4 -0.8,-0.8 0,-0.4 0.4,-0.8 0.8,-0.8 z" />
	<circle
   id="lowerLipBottomMid"
   cx="498.39999"
   cy="210"
   r="0.80000001" />
	<circle
   id="upperLipBottomMid"
   cx="498.39999"
   cy="200.39999"
   r="0.80000001" />
	<circle
   id="lowerLipTopMid"
   cx="498.39999"
   cy="203.5"
   r="0.80000001" />
	<circle
   id="rightUpperLipBottom1"
   cx="494.5"
   cy="199.89999"
   r="0.80000001" />
	<circle
   id="rightLowerLipTop0"
   cx="494.5"
   cy="202.8"
   r="0.80000001" />
	<circle
   id="rightLowerLipBottom1"
   cx="494.29999"
   cy="209.5"
   r="0.80000001" />
	<circle
   id="rightLowerLipBottom0"
   cx="487.29999"
   cy="206.7"
   r="0.80000001" />
	<circle
   id="rightEye4"
   cx="480.10001"
   cy="161.7"
   r="0.80000001" />
	<circle
   id="jawMid"
   cx="498.39999"
   cy="235.8"
   r="0.80000001" />
	<circle
   id="rightJaw7"
   cx="483.39999"
   cy="232.60001"
   r="0.80000001" />
	<circle
   id="rightJaw6"
   cx="473.39999"
   cy="225.89999"
   r="0.80000001" />
	<circle
   id="rightJaw5"
   cx="461.79999"
   cy="213.39999"
   r="0.80000001" />
	<circle
   id="rightJaw4"
   cx="455"
   cy="193.39999"
   r="0.80000001" />
	<circle
   id="rightJaw3"
   cx="454.20001"
   cy="171.7"
   r="0.80000001" />
	<circle
   id="rightJaw2"
   cx="454.20001"
   cy="162.2"
   r="0.80000001" />
	<circle
   id="rightJaw1"
   cx="455"
   cy="150.5"
   r="0.80000001" />
	<circle
   id="rightJaw0"
   cx="457.5"
   cy="141.2"
   r="0.80000001" />
	<circle
   id="topMid"
   cx="498.60001"
   cy="115.1"
   r="0.80000001" />
	<circle
   id="leftTop0"
   cx="518.29999"
   cy="117.6"
   r="0.80000001" />
	<circle
   id="leftTop1"
   cx="530.90002"
   cy="127.1"
   r="0.80000001" />
	<circle
   id="leftEye0"
   cx="528.20001"
   cy="160.2"
   r="0.80000001" />
	<circle
   id="leftBrow1"
   cx="530.09998"
   cy="148.7"
   r="0.80000001" />
	<circle
   id="leftBrow4"
   cx="506.5"
   cy="150.8"
   r="0.80000001" />
	<circle
   id="leftBrow3"
   cx="516.5"
   cy="147.60001"
   r="0.80000001" />
	<circle
   id="leftEye1"
   cx="523"
   cy="156.5"
   r="0.80000001" />
	<circle
   id="leftBrow0"
   cx="534.09998"
   cy="151.60001"
   r="0.80000001" />
	<circle
   id="leftBrow2"
   cx="523.79999"
   cy="147.2"
   r="0.80000001" />
	<circle
   id="leftEye5"
   cx="523"
   cy="162.5"
   r="0.80000001" />
	<circle
   id="leftEye2"
   cx="516.70001"
   cy="156.5"
   r="0.80000001" />
	<circle
   id="leftEye3"
   cx="511.5"
   cy="160.7"
   r="0.80000001" />
	<circle
   id="leftNose0"
   cx="508"
   cy="178.3"
   r="0.80000001" />
	<circle
   id="leftMouthCorner"
   cx="515.90002"
   cy="200.39999"
   r="0.80000001" />
	<circle
   id="leftNose1"
   cx="503.20001"
   cy="178.3"
   r="0.80000001" />
	<circle
   id="leftUpperLipTop0"
   cx="509"
   cy="197"
   r="0.80000001" />
	<circle
   id="leftUpperLipTop1"
   cx="502.60001"
   cy="195.89999"
   r="0.80000001" />
	<path
   id="leftMiddleLip"
   d="m 512.3,199.9 c 0.4,0 0.8,0.4 0.8,0.8 0,0.4 -0.4,0.8 -0.8,0.8 -0.4,0 -0.8,-0.4 -0.8,-0.8 0,-0.4 0.4,-0.8 0.8,-0.8 z" />
	<circle
   id="leftUpperLipBottom1"
   cx="502.39999"
   cy="199.89999"
   r="0.80000001" />
	<circle
   id="leftLowerLipTop0"
   cx="502.39999"
   cy="202.8"
   r="0.80000001" />
	<circle
   id="leftLowerLipBottom1"
   cx="502.60001"
   cy="209.5"
   r="0.80000001" />
	<circle
   id="leftLowerLipBottom0"
   cx="509.5"
   cy="206.7"
   r="0.80000001" />
	<circle
   id="leftEye4"
   cx="516.70001"
   cy="161.7"
   r="0.80000001" />
	<circle
   id="leftJaw7"
   cx="513.20001"
   cy="233"
   r="0.80000001" />
	<circle
   id="leftJaw6"
   cx="523.20001"
   cy="226.3"
   r="0.80000001" />
	<circle
   id="leftJaw5"
   cx="534.79999"
   cy="213.7"
   r="0.80000001" />
	<circle
   id="leftJaw4"
   cx="541.59998"
   cy="193.7"
   r="0.80000001" />
	<circle
   id="leftJaw3"
   cx="542.40002"
   cy="172.10001"
   r="0.80000001" />
	<circle
   id="leftJaw2"
   cx="542.40002"
   cy="162.5"
   r="0.80000001" />
	<circle
   id="leftJaw1"
   cx="541.59998"
   cy="150.8"
   r="0.80000001" />
	<circle
   id="leftJaw0"
   cx="539.09998"
   cy="141.60001"
   r="0.80000001" />
	<polyline
   style="fill:none;stroke:#000000;stroke-miterlimit:10"
   points="498.4,115.1 478.6,117.6 466.1,127.1 457.5,141.2    455,150.5 454.2,162.2 454.2,171.7 455,193.4 461.8,213.4 473.4,225.9 483.4,232.6 498.4,235.8 513.2,233 523.2,226.3 534.8,213.7    541.6,193.7 542.4,172.1 542.4,162.5 541.6,150.8 539.1,141.6 530.9,127.1 518.3,117.6 498.4,115.1  "
   id="polyline213" />
	<polyline
   style="fill:none;stroke:#000000;stroke-miterlimit:10"
   points="462.4,152 466.4,148.3 472.6,147.3 479.9,147.3    489.7,151.3  "
   id="polyline215" />
	<polygon
   style="fill:none;stroke:#000000;stroke-miterlimit:10"
   points="480.1,161.7 473.8,162.5 468.6,160.2 473.8,156.5 480.1,156.5 485.3,160.7 "
   id="polygon217" />
	<polyline
   style="fill:none;stroke:#000000;stroke-miterlimit:10"
   points="486.9,178.3 492.1,178.3 497.6,179.1 497.6,173.8    497.6,166.7 497.6,161.2 497.6,155.4  "
   id="polyline219" />
	<polyline
   style="fill:none;stroke:#000000;stroke-miterlimit:10"
   points="533.9,151.6 529.9,148.7 523.6,147.2 516.3,147.6    506.3,150.8  "
   id="polyline221" />
	<polygon
   style="fill:none;stroke:#000000;stroke-miterlimit:10"
   points="516.4,161.7 522.7,162.5 528,160.2 522.7,156.5 516.4,156.5 511.3,160.7 "
   id="polygon223" />
	<polyline
   style="fill:none;stroke:#000000;stroke-miterlimit:10"
   points="508,178.3 503,178.3 497.6,179.1  "
   id="polyline225" />
	<polygon
   style="fill:none;stroke:#000000;stroke-miterlimit:10"
   points="502.6,195.9 509,197 515.9,200.4 509.5,206.7 502.4,209.5 498.4,210 494.3,209.5 487.3,206.7 480.9,200.4 487.8,197 494.3,195.9 498.4,196.8 "
   id="polygon227" />
	<polyline
   style="fill:none;stroke:#000000;stroke-miterlimit:10"
   points="480.9,200.4 484.5,200.7 494.5,199.9 498.4,200.4    502.4,199.9 512.3,200.7 515.9,200.4  "
   id="polyline229" />
	<polyline
   style="fill:none;stroke:#000000;stroke-miterlimit:10"
   points="480.9,200.4 484.5,200.7 494.5,202.8 498.4,203.6    502.4,202.8 512.3,200.7 515.9,200.4  "
   id="polyline231" />
	<circle
   id="rightTop0"
   cx="478.70001"
   cy="117.6"
   r="0.80000001" />
	<circle
   id="rightTop1"
   cx="466.10001"
   cy="127.1"
   r="0.80000001" />
</g>
</svg>
